<svg xmlns="http://www.w3.org/2000/svg" viewBox="0 0 100 100">
  <title>Samosa House</title>
  <rect width="100" height="100" rx="22" fill="#111827"/>
  <g transform="translate(1, -7)">
    <path fill="#F97316" d="M68.5,33.2c-3.1-4.2-8.5-7.2-15.1-7.2c-10.8,0-18.4,7.6-18.4,17.4c0,9,6.5,14,14.6,16.7c7.2,2.4,10.6,4.3,10.6,8.8 c0,4.6-4.2,8.4-10.4,8.4c-6.8,0-12.7-4.5-15.2-9.2l-10.1,7.2C28.8,83.1,38,88,49.8,88c12.2,0,21.5-8.2,21.5-19.1 c0-11-7.9-15.2-15.5-17.8c-6.6-2.3-9.7-4.1-9.7-7.9c0-3.6,3.2-6.5,8.1-6.5c4.7,0,9,2.8,11.2,6.5L68.5,33.2z"/>
  </g>
</svg>
